<svg width="31" height="21" fill="none" xmlns="http://www.w3.org/2000/svg"><path d="m30.3 7-3.5.2-3.2-4.9c-.1-.2-.4-.3-.6-.3-.2 0-.5.1-.6.3l-3.2 4.9h-3.5c-.4 0-.7.3-.7.7v.2l1.9 6.8c.2.7.7 1.1 1.4 1.1h9.4c.7 0 1.2-.4 1.4-1.1L31 8v-.2c0-.4-.3-.8-.7-.8ZM23 3.9l2.2 3.2h-4.3L23 3.9Z" fill="#000"/><circle cx="10.5" cy="10.5" r="10.5" fill="#fff"/><path d="M7.4 15a.35.35 0 0 1-.24-.08.35.35 0 0 1-.08-.24v-.45c0-.21.11-.42.35-.62l2.97-2.96a9.12 9.12 0 0 0 1.48-1.46c.27-.38.4-.78.4-1.2 0-.55-.15-.97-.46-1.28-.3-.3-.73-.46-1.31-.46-.54 0-.98.16-1.3.49-.33.32-.53.74-.6 1.27a.38.38 0 0 1-.15.26.38.38 0 0 1-.22.07h-.73a.32.32 0 0 1-.2-.07.27.27 0 0 1-.1-.2c.03-.5.16-.98.41-1.44.26-.47.62-.85 1.11-1.14.5-.3 1.09-.44 1.78-.44 1.05 0 1.85.27 2.38.82.54.54.81 1.23.81 2.07 0 .6-.15 1.12-.45 1.6-.29.47-.74.97-1.36 1.51l-2.68 2.73h4.36c.1 0 .19.03.24.1.07.06.1.13.1.22v.58c0 .1-.03.17-.1.24a.35.35 0 0 1-.24.08H7.4Z" fill="#000"/></svg>